<svg xmlns="http://www.w3.org/2000/svg" role="img" viewBox="0 0 24 24"><title>Next.js</title><path fill="white" d="M11.5725 0c-.1763 0-.3098.0013-.3584.0067-.0516.0053-.2159.021-.3636.0328-3.4088.3073-6.6017 2.1463-8.624 4.9728C1.1004 6.584.3802 8.3666.1082 10.255c-.0962.659-.108.8537-.108 1.7474s.012 1.0884.108 1.7476c.652 4.506 3.8591 8.2919 8.2087 9.6945.7789.2511 1.6.4223 2.5337.5255.3636.04 1.9354.04 2.299 0 1.6117-.1783 2.9772-.577 4.3237-1.2643.2065-.1056.2464-.1337.2183-.1573-.0188-.0139-.8987-1.1938-1.9543-2.62l-1.919-2.592-2.4047-3.5583c-1.3231-1.9564-2.4117-3.556-2.4211-3.556-.0094-.0026-.0187 1.5787-.0187 3.509 0 3.3802.0093 3.5162.0933 3.6031.0832.0809.2063.1265.3505.1265.1624 0 .3394-.0809.4465-.2052.0373-.0437.1246-.2457.1985-.4562.0746-.2104.1428-.3866.1517-.3866.0089 0 1.0372 1.396 2.2859 3.102l2.2715 3.102.5074-.3177c.8114-.5089 1.5545-1.1111 2.2288-1.8091.6772-.7108 1.3203-1.5649 1.8186-2.4323.4266-.7448.8148-1.6521 1.0732-2.5211.134-.4491.3618-1.4777.404-1.8253.0186-.1715.0093-1.8253-.0186-2.0475-.0832-.6917-.1902-1.2955-.3618-2.0007-.2621-1.0722-.6889-2.0838-1.2501-2.9697-.2996-.4673-.7483-1.0863-1.0546-1.4485-1.7418-2.0939-4.0521-3.5266-6.5837-4.0985-.7048-.1585-1.0732-.2078-1.9901-.2598-.2183-.0139-.9933-.0266-1.17-.0266H11.5725zm7.5389 4.79V4.823l.4018.0531c.6872.0887 1.1705.2078 1.7658.442 2.3264.91 4.1903 2.8345 5.0375 5.1753.7858 2.1648.7627 4.6647-.0373 6.808A9.7759 9.7759 0 0120.91 21.3372c-.3888.2318-.3914.2345-.7183-.213l-2.0253-2.7682c-.0107-.0133-.0213-.0266-.032-.0373-.7049-.9533-1.864-2.4971-2.572-3.4307-.2599-.3413-.6889-.931-.956-1.3088C13.863 12.622 13.75 12.469 13.74 12.469c-.0099 0-.0198.0133-.0198.0266-.0013.1292-.005 2.3015-.0094 4.8273l-.0066 4.5906-.108.0532c-.1522.0745-.241.0825-.4143.0372-.185-.048-.2702-.1478-.3376-.3845-.0172-.0585-.0413-.5976-.0573-1.198-.0213-.8191-.0253-.813-.0546-.8401-.0173-.0133-.0626-.0253-.1002-.0253-.0853 0-.1332.037-.2157.1664-.0546.0865-1.6716 2.5458-1.7583 2.677-.0198.0293-.0999.063-.1731.0745l-.1359.0213-.3081-.2078c-.5427-.3646-1.0707-.8165-1.5518-1.3298-.2929-.3148-.8188-.99-1.0412-1.3353-1.5911-2.4658-2.17-5.3495-1.624-8.0873.4946-2.4862 1.8775-4.7034 3.8778-6.2219 1.1333-.86 2.4144-1.4964 3.7967-1.8896.5814-.166 1.2234-.304 1.9103-.4089l.1305-.0159.0013 4.7771.0013 4.777.1092.0532c.14.0692.3101.0159.3875-.1265.0333-.0611.1652-.2678.2969-.4616.131-.1944.266-.3915.2998-.4402.0339-.0493.2011-.2967.3726-.5509.1722-.2529.36-.5284.4186-.6135.0573-.0839.1825-.27.2771-.4122.0946-.1422.2078-.3094.2504-.3727.0432-.0625.1951-.285.3367-.4923.1415-.2078.2756-.4035.2969-.4349.0213-.0306.2078-.3068.4143-.6135.2078-.3067.4062-.6004.4415-.6523.0346-.052.0772-.1133.0932-.1346.016-.0213.1279-.1905.2511-.3753.1225-.1848.3462-.5176.4968-.74.1505-.2231.2783-.4109.2849-.4189.007-.008.0426-.0626.0799-.1212.0693-.1078.4835-.7185.5867-.8677.0293-.0399.2944-.4349.5906-.8737.2956-.4388.5787-.8576.6298-.932.051-.0745.0959-.1492.0985-.166.0027-.0173-.0133-.0372-.0346-.0452-.0559-.0226-2.6897-.0226-2.7443 0-.032.0133-.1118.1276-.2958.4215-.0559.0906-.1811.2811-.2771.4242-.096.1439-.3328.4996-.5268.7915-.2772.42-.4929.7455-.5734.8683-.0239.0373-.0825.1252-.1319.1971-.0493.072-.1411.2078-.2038.3014-.0813.1224-.1439.222-.2305.3647-.0186.0306-.9694 1.4617-2.112 3.1798-1.1433 1.718-2.0825 3.1273-2.0878 3.1317-.0053.0053-.0133-.6336-.018-1.4184-.0133-2.2338-.0186-7.852-.0093-8.8586l.0093-.9307.132-.0266c.0733-.0146.18-.0359.2398-.0479.8869-.1731 1.6198-.4002 2.395-.7428 2.0571-.9094 3.7915-2.581 4.7649-4.5972.4155-.8604.6889-1.6842.8775-2.6428.0986-.5029.108-.6137.108-1.4138 0-.8214-.0107-.9094-.1173-1.4565-.4042-2.0748-1.371-3.8645-2.8905-5.3495-1.0945-1.0703-2.3677-1.8774-3.7928-2.4077-.5893-.2198-1.3524-.4243-1.9834-.5309-.2929-.0492-.4341-.0692-.6125-.0852-.1147-.0106-.208-.0305-.2078-.0411 0-.0133.9267-.0159 2.059-.0066L19.11 4.795v1.491ZM6.0484 10.4847c-1.2448 1.8838-1.771 4.1223-1.5052 6.3831.0613.5282.1545 1.0292.3115 1.66.1971.7915.4035 1.3247.7975 2.0614.8241 1.5424 2.068 2.8691 3.5986 3.8325.4449.2811.4143.2745.6319.1452.1012-.0598 2.204-2.9884 2.6724-3.6461.0333-.0452.1305-.1797.2171-.2982.3554-.4868.4622-.6336.4622-.6376 0-.0026-.0425-.0066-.0946-.0093-.2543-.0106-1.5344-.0639-1.9941-.0825-1.5971-.0638-3.2289-.1424-3.4554-.166-.3941-.0426-.6532-.0985-.9133-.1971-.4542-.1718-.8507-.4883-1.1066-.8844-.1985-.3066-.3208-.6417-.3754-1.0292-.0186-.1291-.0346-.7214-.0293-1.0837.0067-.4868.0133-.5535.0693-.7788.1891-.7708.7123-1.3693 1.4458-1.6575.1252-.0492.2157-.0718.48-.1238 1.2141-.2384 2.8279-.4349 4.2948-.5242.188-.0093.3462-.0225.3488-.025.0027-.0027-.0625-.108-.1439-.2318-.2344-.3481-2.8399-4.2615-3.0956-4.6511-.1332-.2065-.2504-.3824-.2597-.3903-.0226-.0186-.0866-.0106-.2518.0306-.3501.0877-1.1078.3507-1.5823.5509-.8413.3548-1.7298.8761-2.4423 1.4391Z"/></svg>