<svg width="32px" height="32px" viewBox="0 0 32 32" xmlns="http://www.w3.org/2000/svg" fill="white">
  <path d="M29.71,13.09A8.09,8.09,0,0,0,20.34,2.68a8.08,8.08,0,0,0-13.7,2.9A8.08,8.08,0,0,0,2.3,18.9,8,8,0,0,0,3,25.45a8.09,8.09,0,0,0,9.4,5.12,8.09,8.09,0,0,0,13.7-2.92A8.11,8.11,0,0,0,29.71,13.09ZM9.79,28.17a6.11,6.11,0,0,1-7.12-3.86,6,6,0,0,1-.53-4.94,6,6,0,0,1,.17-.44A6.09,6.09,0,0,0,8,23.11a6.1,6.1,0,0,0,5.47,2.35,8.06,8.06,0,0,0,.68-1.19A6.08,6.08,0,0,1,9.79,28.17ZM23,25.91a6.11,6.11,0,0,1-10.37,2.3,6.09,6.09,0,0,1,3.36-9.92,6.1,6.1,0,0,1,5.48,2.35,7.85,7.85,0,0,0,.67-1.19A6.11,6.11,0,0,0,12,16.51a6.12,6.12,0,0,0-8,3.27,8,8,0,0,0-.53,5.05,6.1,6.1,0,0,1-2.38-8.45A6.12,6.12,0,0,1,8.07,13a6.11,6.11,0,0,1,11.13-1.82,6.12,6.12,0,0,1,5.47,2.35,8.06,8.06,0,0,0,.68-1.19,6.1,6.1,0,0,0-5.47-3.94A6.11,6.11,0,0,0,8,11.08,8.25,8.25,0,0,0,4.7,15.57,6.08,6.08,0,0,1,8,11.83a6.1,6.1,0,0,1,5.47-2.35,8.06,8.06,0,0,0,.68-1.19A6.12,6.12,0,0,0,4.7,12.09,6.11,6.11,0,0,1,7.06,4.53a6.11,6.11,0,0,1,10.37-2.3,6.1,6.1,0,0,1,1.56,6.09,6.11,6.11,0,0,1,5.48,2.35,8.06,8.06,0,0,0,.67-1.19A6.08,6.08,0,0,0,17.79,3.8a6.27,6.27,0,0,0-1.56-.9,6.29,6.29,0,0,0-1.55.9A6.11,6.11,0,0,0,9.2,9.72a6.12,6.12,0,0,0,2.38,8.45A6.1,6.1,0,0,0,20,15.49a8.11,8.11,0,0,0,4.17,2.76A6.12,6.12,0,0,1,23,25.91Z"/>
</svg> 