<svg xmlns="http://www.w3.org/2000/svg" viewBox="0 0 256 256" fill="none">
  <path fill="white" d="M165.874 101.906c-3.139 0-5.38 1.428-7.143 4.285h-.384c-1.763-2.944-4.004-4.285-6.857-4.285-2.665 0-4.666 1.19-6.095 3.523h-.286v-2.952h-4.857v19.047h4.952v-10.476c0-3.888 1.714-5.904 4.573-5.904 2.666 0 4 1.905 4 5.238v11.143h4.953v-10.477c0-3.888 1.713-5.904 4.571-5.904 2.666 0 4 1.905 4 5.238v11.143h4.953v-11.905c0-5.047-2.571-8-7.38-8Z"/>
  <path fill="white" d="M56.29 121.524v-19.047H51.15v19.047h5.143Zm-2.572-21.905c1.81 0 3.381-1.38 3.381-3.104 0-1.714-1.571-3.095-3.38-3.095-1.81 0-3.382 1.38-3.382 3.095 0 1.724 1.571 3.104 3.381 3.104Z"/>
  <path fill="white" d="M71.347 101.906c-5.904 0-10.19 4.19-10.19 9.904 0 5.72 4.19 9.905 10.286 9.905 3.523 0 6.285-1.238 8.19-3.714l-3.238-2.857c-1.24 1.524-2.952 2.285-4.952 2.285-2.953 0-5.048-1.713-5.524-4.666h14.19v-1.524c0-5.713-3.904-9.333-8.762-9.333Zm-5.333 8.19c.57-2.665 2.477-4.19 5.146-4.19 2.477 0 4.38 1.428 4.762 4.19h-9.908Z"/>
  <path fill="white" d="M95.426 102.477h-5.238v-6h-4.952v6h-3.713v4.38h3.714v7.714c0 4.953 1.904 7.143 7.428 7.143 1.143 0 2.666-.286 3.618-.762l-1.143-4.095c-.571.285-1.428.38-2.095.38-2 0-2.856-.952-2.856-2.952v-7.428h5.237v-4.38Z"/>
  <path fill="white" d="M103.058 121.524v-14.857h-4.952v14.857h4.952Zm-2.381-17.048c1.62 0 2.95-1.285 2.95-2.856 0-1.572-1.33-2.857-2.95-2.857-1.619 0-2.95 1.285-2.95 2.857 0 1.57 1.331 2.856 2.95 2.856Z"/>
  <path fill="white" d="M111.925 121.524v-22.475h-4.857v22.476h4.857Z"/>
  <path fill="white" d="M126.763 121.524v-22.475h-4.858v22.476h4.858Z"/>
  <path fill="white" d="M146.8 111.715c0-5.906-4.095-9.81-9.714-9.81-5.714 0-9.81 3.905-9.81 9.62 0 5.714 4.096 10.19 10.381 10.19 3.238 0 5.905-1.047 7.714-3.047l-3.048-2.857c-1.237 1.238-2.856 1.904-4.57 1.904-3.048 0-5.239-1.904-5.524-4.571h14.476c.095-.476.095-1.048.095-1.43Zm-14.666-1.524c.476-2.762 2.57-4.571 5.142-4.571 2.57 0 4.477 1.714 4.857 4.571h-10Z"/>
</svg> 